<?xml version="1.0" encoding="UTF-8"?>
<svg xmlns="http://www.w3.org/2000/svg" xmlns:xlink="http://www.w3.org/1999/xlink" viewBox="0 0 40 40" width="40px" height="40px">
<g id="surface42820661">
<path style=" stroke:none;fill-rule:nonzero;fill:rgb(20.392157%,59.607846%,85.882354%);fill-opacity:1;" d="M 20 33 C 12.820312 33 7 27.179688 7 20 C 7 12.820312 12.820312 7 20 7 C 27.179688 7 33 12.820312 33 20 C 33 27.179688 27.179688 33 20 33 Z M 20 33 "/>
<path style=" stroke:none;fill-rule:nonzero;fill:rgb(100%,100%,100%);fill-opacity:1;" d="M 22.882812 14.378906 C 21.011719 14.378906 19.496094 15.898438 19.496094 17.765625 C 19.496094 17.878906 19.523438 17.988281 19.535156 18.097656 C 17.222656 17.878906 15.183594 16.765625 13.792969 15.0625 C 13.730469 14.980469 13.628906 14.9375 13.523438 14.945312 C 13.421875 14.953125 13.328125 15.011719 13.277344 15.101562 C 12.984375 15.605469 12.820312 16.179688 12.820312 16.800781 C 12.820312 17.550781 13.085938 18.238281 13.503906 18.800781 C 13.421875 18.765625 13.332031 18.746094 13.257812 18.703125 C 13.160156 18.652344 13.046875 18.65625 12.953125 18.710938 C 12.859375 18.765625 12.800781 18.867188 12.800781 18.976562 L 12.800781 19.015625 C 12.800781 20.167969 13.394531 21.164062 14.273438 21.777344 C 14.261719 21.777344 14.253906 21.78125 14.242188 21.777344 C 14.136719 21.761719 14.027344 21.796875 13.957031 21.878906 C 13.882812 21.960938 13.859375 22.074219 13.890625 22.179688 C 14.242188 23.261719 15.132812 24.089844 16.234375 24.394531 C 15.355469 24.914062 14.335938 25.222656 13.238281 25.222656 C 13 25.222656 12.773438 25.210938 12.546875 25.183594 C 12.398438 25.164062 12.257812 25.25 12.210938 25.390625 C 12.160156 25.527344 12.214844 25.683594 12.339844 25.761719 C 13.75 26.664062 15.421875 27.195312 17.21875 27.195312 C 20.136719 27.195312 22.421875 25.976562 23.953125 24.238281 C 25.488281 22.496094 26.289062 20.238281 26.289062 18.128906 C 26.289062 18.039062 26.28125 17.953125 26.277344 17.863281 C 26.851562 17.425781 27.359375 16.914062 27.761719 16.3125 C 27.839844 16.195312 27.832031 16.042969 27.742188 15.933594 C 27.652344 15.828125 27.496094 15.792969 27.371094 15.855469 C 27.210938 15.925781 27.023438 15.933594 26.855469 15.992188 C 27.074219 15.695312 27.265625 15.375 27.378906 15.015625 C 27.417969 14.890625 27.378906 14.753906 27.277344 14.675781 C 27.175781 14.597656 27.03125 14.585938 26.921875 14.652344 C 26.390625 14.96875 25.796875 15.191406 25.175781 15.328125 C 24.570312 14.761719 23.773438 14.378906 22.882812 14.378906 Z M 22.882812 15.003906 C 23.679688 15.003906 24.398438 15.34375 24.902344 15.882812 C 24.976562 15.960938 25.089844 15.992188 25.195312 15.972656 C 25.601562 15.890625 25.988281 15.773438 26.367188 15.621094 C 26.148438 15.914062 25.878906 16.164062 25.566406 16.351562 C 25.421875 16.421875 25.355469 16.585938 25.40625 16.734375 C 25.460938 16.882812 25.617188 16.972656 25.769531 16.9375 C 26.082031 16.898438 26.359375 16.773438 26.660156 16.691406 C 26.390625 16.980469 26.097656 17.242188 25.78125 17.472656 C 25.695312 17.539062 25.644531 17.640625 25.652344 17.746094 C 25.65625 17.875 25.664062 18 25.664062 18.128906 C 25.664062 20.078125 24.914062 22.199219 23.488281 23.816406 C 22.058594 25.4375 19.964844 26.570312 17.21875 26.570312 C 15.976562 26.570312 14.800781 26.292969 13.734375 25.808594 C 15.054688 25.707031 16.269531 25.242188 17.25 24.472656 C 17.351562 24.390625 17.394531 24.253906 17.351562 24.128906 C 17.308594 24.003906 17.195312 23.917969 17.0625 23.914062 C 16.035156 23.898438 15.171875 23.296875 14.710938 22.453125 C 14.730469 22.453125 14.742188 22.453125 14.761719 22.453125 C 15.070312 22.453125 15.375 22.414062 15.660156 22.335938 C 15.796875 22.292969 15.890625 22.167969 15.882812 22.023438 C 15.878906 21.882812 15.777344 21.761719 15.640625 21.730469 C 14.527344 21.503906 13.695312 20.601562 13.503906 19.476562 C 13.816406 19.582031 14.140625 19.667969 14.488281 19.679688 C 14.628906 19.6875 14.761719 19.597656 14.804688 19.464844 C 14.847656 19.328125 14.792969 19.179688 14.671875 19.105469 C 13.929688 18.605469 13.445312 17.761719 13.445312 16.800781 C 13.445312 16.445312 13.535156 16.117188 13.65625 15.804688 C 15.21875 17.519531 17.40625 18.65625 19.875 18.78125 C 19.972656 18.785156 20.066406 18.746094 20.132812 18.671875 C 20.195312 18.597656 20.21875 18.496094 20.199219 18.402344 C 20.148438 18.199219 20.121094 17.984375 20.121094 17.765625 C 20.121094 16.238281 21.351562 15.003906 22.882812 15.003906 Z M 22.882812 15.003906 "/>
</g>
</svg>
